<mxfile host="app.diagrams.net" modified="2024-02-05T15:45:02.219Z" agent="Mozilla/5.0 (Windows NT 10.0; Win64; x64) AppleWebKit/537.36 (KHTML, like Gecko) Chrome/120.0.0.0 Safari/537.36" etag="HpYzLod_vy_LWp-pFf1v" version="23.1.1" type="github">
  <diagram name="Page-1" id="LfadJPtHci9c8fep6sQT">
    <mxGraphModel dx="1050" dy="565" grid="1" gridSize="10" guides="1" tooltips="1" connect="1" arrows="1" fold="1" page="1" pageScale="1" pageWidth="827" pageHeight="1169" math="0" shadow="0">
      <root>
        <mxCell id="0" />
        <mxCell id="1" parent="0" />
        <mxCell id="aPsWvc_DvLjk4q4S72fm-1" value="Mysql&lt;br&gt;SQL Server&lt;br&gt;Oracle&lt;br&gt;PostgreSQL&lt;br&gt;Maria DB" style="shape=cylinder3;whiteSpace=wrap;html=1;boundedLbl=1;backgroundOutline=1;size=15;" vertex="1" parent="1">
          <mxGeometry x="600" y="80" width="80" height="120" as="geometry" />
        </mxCell>
        <mxCell id="aPsWvc_DvLjk4q4S72fm-2" value="Mongo DB&lt;br&gt;Redis&lt;br&gt;Cassandra&lt;br&gt;Elastic Search&lt;br&gt;Amazon Dynamo DB" style="shape=cylinder3;whiteSpace=wrap;html=1;boundedLbl=1;backgroundOutline=1;size=15;" vertex="1" parent="1">
          <mxGeometry x="600" y="240" width="80" height="130" as="geometry" />
        </mxCell>
        <mxCell id="aPsWvc_DvLjk4q4S72fm-3" value="Html&lt;br&gt;Javascript&lt;br&gt;CSS" style="whiteSpace=wrap;html=1;aspect=fixed;" vertex="1" parent="1">
          <mxGeometry x="160" y="190" width="100" height="100" as="geometry" />
        </mxCell>
        <mxCell id="aPsWvc_DvLjk4q4S72fm-4" value="c#&lt;br&gt;&lt;br&gt;Java&lt;br&gt;&lt;br&gt;Python&lt;br&gt;PHP&lt;br&gt;Javascript&lt;br&gt;" style="rounded=0;whiteSpace=wrap;html=1;" vertex="1" parent="1">
          <mxGeometry x="354" y="170" width="120" height="140" as="geometry" />
        </mxCell>
        <mxCell id="aPsWvc_DvLjk4q4S72fm-13" value="SQL" style="text;html=1;strokeColor=none;fillColor=none;align=center;verticalAlign=middle;whiteSpace=wrap;rounded=0;" vertex="1" parent="1">
          <mxGeometry x="530" y="100" width="60" height="30" as="geometry" />
        </mxCell>
        <mxCell id="aPsWvc_DvLjk4q4S72fm-15" value="No SQL" style="text;html=1;strokeColor=none;fillColor=none;align=center;verticalAlign=middle;whiteSpace=wrap;rounded=0;" vertex="1" parent="1">
          <mxGeometry x="530" y="320" width="60" height="30" as="geometry" />
        </mxCell>
        <mxCell id="aPsWvc_DvLjk4q4S72fm-16" value="" style="endArrow=classic;startArrow=classic;html=1;rounded=0;exitX=1;exitY=0.5;exitDx=0;exitDy=0;entryX=0;entryY=0.5;entryDx=0;entryDy=0;" edge="1" parent="1" source="aPsWvc_DvLjk4q4S72fm-3" target="aPsWvc_DvLjk4q4S72fm-4">
          <mxGeometry width="50" height="50" relative="1" as="geometry">
            <mxPoint x="390" y="320" as="sourcePoint" />
            <mxPoint x="440" y="270" as="targetPoint" />
          </mxGeometry>
        </mxCell>
        <mxCell id="aPsWvc_DvLjk4q4S72fm-17" value="" style="endArrow=classic;startArrow=classic;html=1;rounded=0;exitX=1;exitY=0.5;exitDx=0;exitDy=0;entryX=-0.045;entryY=0.588;entryDx=0;entryDy=0;entryPerimeter=0;" edge="1" parent="1" target="aPsWvc_DvLjk4q4S72fm-1">
          <mxGeometry width="50" height="50" relative="1" as="geometry">
            <mxPoint x="474" y="240" as="sourcePoint" />
            <mxPoint x="568" y="240" as="targetPoint" />
          </mxGeometry>
        </mxCell>
        <mxCell id="aPsWvc_DvLjk4q4S72fm-18" value="" style="endArrow=classic;startArrow=classic;html=1;rounded=0;exitX=1;exitY=0.5;exitDx=0;exitDy=0;entryX=-0.045;entryY=0.574;entryDx=0;entryDy=0;entryPerimeter=0;" edge="1" parent="1" target="aPsWvc_DvLjk4q4S72fm-2">
          <mxGeometry width="50" height="50" relative="1" as="geometry">
            <mxPoint x="474" y="239.5" as="sourcePoint" />
            <mxPoint x="568" y="239.5" as="targetPoint" />
          </mxGeometry>
        </mxCell>
      </root>
    </mxGraphModel>
  </diagram>
</mxfile>
